# xmcd CD database file generated by OrangeCD 4.2
#
# Track frame offsets:
#	150
#	13612
#	25025
#	39595
#	55330
#	71430
#	93502
#	105305
#	120087
#	138015
#	152940
#	163857
#	179877
#	193475
#	220085
#	232462
#	249077
#	263647
#	282545
#
# Disc length: 3967 seconds
#
# Revision: 3
# Processed by: cddbd v1.4PL0 Copyright (c) Steve Scherf et al.
# Submitted via: OrangeCD 4.2
#
DISCID=0f0f7d13
DTITLE=Taj Mahal - In Progress and In Motion 1965-1998 [CD2]
DYEAR=1900
DGENRE=Blues
TTITLE0=Oh, Susanna
TTITLE1=Cakewalk Into Town
TTITLE2=Fishin' Blues
TTITLE3=Nobody's Busines But My Own
TTITLE4=Sweet Mama Janisse
TTITLE5=Little Red Hen Blues
TTITLE6=Mary Don't You Weep
TTITLE7=Sweet Home Chicago
TTITLE8=Frankie and Albert
TTITLE9=M'Banjo
TTITLE10=Statesboro Blues
TTITLE11=Bye and Bye
TTITLE12=Six Days On The Road
TTITLE13=We Gonna Rock
TTITLE14=Ain't It Funky Now
TTITLE15=Tom and Sally Drake
TTITLE16=Fishin' Blues
TTITLE17=Blues With A Feeling
TTITLE18=Freight Train
EXTD=
EXTT0=
EXTT1=
EXTT2=
EXTT3=
EXTT4=
EXTT5=
EXTT6=
EXTT7=
EXTT8=
EXTT9=
EXTT10=
EXTT11=
EXTT12=
EXTT13=
EXTT14=
EXTT15=
EXTT16=
EXTT17=
EXTT18=
PLAYORDER=
